# 3ds Max Wavefront OBJ Exporter v0.97b - (c)2007 guruware
# File Created: 08.10.2015 15:19:01

mtllib 3d-model.mtl

#
# object Layer0_001
#

v  -900.0000 0.0000 -675.0000
v  -900.0000 0.0000 -900.0000
v  -675.0001 0.0000 -900.0000
v  -900.0000 0.0000 -450.0000
v  -900.0000 0.0000 -225.0000
v  -900.0000 0.0000 -0.0002
v  -900.0000 0.0000 224.9999
v  -900.0000 0.0000 449.9999
v  -900.0000 0.0000 674.9999
v  -900.0000 0.0000 899.9999
v  -675.0001 0.0000 899.9999
v  -450.0001 0.0000 -900.0000
v  -450.0001 0.0000 899.9999
v  -225.0000 0.0000 -900.0000
v  -225.0000 0.0000 899.9999
v  0.0000 0.0000 -900.0000
v  0.0000 0.0000 899.9999
v  225.0000 0.0000 -900.0000
v  225.0000 0.0000 899.9999
v  450.0000 0.0000 -900.0000
v  450.0000 0.0000 899.9999
v  675.0000 0.0000 -900.0000
v  675.0000 0.0000 899.9999
v  900.0000 0.0000 -900.0000
v  900.0000 0.0000 899.9999
v  900.0000 0.0000 -675.0000
v  900.0000 0.0000 -450.0000
v  900.0000 0.0000 -225.0000
v  900.0000 0.0000 -0.0002
v  900.0000 0.0000 224.9999
v  900.0000 0.0000 449.9999
v  900.0000 0.0000 674.9999
v  -450.0001 545.0000 224.9999
v  -450.0001 545.0000 449.9999
v  -225.0000 545.0000 449.9999
v  -450.0001 545.0000 -0.0002
v  -450.0001 545.0000 -225.0000
v  -450.0001 545.0000 -450.0000
v  -225.0000 545.0000 -450.0000
v  0.0000 545.0000 449.9999
v  0.0000 545.0000 -450.0000
v  225.0000 545.0000 449.9999
v  225.0000 545.0000 -450.0000
v  450.0000 545.0000 449.9999
v  450.0000 545.0000 -450.0000
v  450.0000 545.0000 224.9999
v  450.0000 545.0000 -0.0002
v  450.0000 545.0000 -225.0000
v  -675.0001 272.5000 449.9999
v  -675.0001 272.5000 674.9999
v  -450.0001 272.5000 674.9999
v  -675.0001 272.5000 224.9999
v  -675.0001 272.5000 -0.0002
v  -675.0001 272.5000 -225.0000
v  -675.0001 272.5000 -450.0000
v  -675.0001 272.5000 -675.0000
v  -450.0001 272.5000 -675.0000
v  -225.0000 272.5000 674.9999
v  -225.0000 272.5000 -675.0000
v  0.0000 272.5000 674.9999
v  0.0000 272.5000 -675.0000
v  225.0000 272.5000 674.9999
v  225.0000 272.5000 -675.0000
v  450.0000 272.5000 674.9999
v  450.0000 272.5000 -675.0000
v  675.0000 272.5000 674.9999
v  675.0000 272.5000 -675.0000
v  675.0000 272.5000 449.9999
v  675.0000 272.5000 224.9999
v  675.0000 272.5000 -0.0002
v  675.0000 272.5000 -225.0000
v  675.0000 272.5000 -450.0000
v  -225.0000 817.5000 -0.0002
v  -225.0000 817.5000 224.9999
v  0.0000 817.5000 224.9999
v  -225.0000 817.5000 -225.0000
v  0.0000 817.5000 -225.0000
v  225.0000 817.5000 224.9999
v  225.0000 817.5000 -225.0000
v  225.0000 817.5000 -0.0002
v  0.0000 1090.0000 -0.0002
# 81 vertices

vn 0.0000 -1.0000 -0.0000
vn 0.0000 1.0000 -0.0000
vn 0.7711 0.6367 -0.0000
vn -0.0000 0.6367 -0.7711
vn 0.0000 0.6367 0.7711
vn -0.7711 0.6367 -0.0000
vn -0.0000 0.6367 0.7711
vn 0.7711 0.6367 0.0000
vn 0.0000 0.6367 -0.7711
# 9 vertex normals

vt 0.0000 0.0000 0.0000
# 1 texture coords

g Layer0_001
usemtl wire_134110008
s off
f 1/1/1 2/1/1 3/1/1 4/1/1 
f 5/1/1 4/1/1 3/1/1 6/1/1 
f 7/1/1 6/1/1 3/1/1 8/1/1 
f 9/1/1 8/1/1 3/1/1 10/1/1 
f 11/1/1 10/1/1 3/1/1 12/1/1 
f 13/1/1 11/1/1 12/1/1 14/1/1 
f 15/1/1 13/1/1 14/1/1 16/1/1 
f 17/1/1 15/1/1 16/1/1 18/1/1 
f 19/1/1 17/1/1 18/1/1 20/1/1 
f 21/1/1 19/1/1 20/1/1 22/1/1 
f 23/1/1 21/1/1 22/1/1 24/1/1 
f 25/1/1 23/1/1 24/1/1 26/1/1 
f 25/1/1 26/1/1 27/1/1 28/1/1 
f 25/1/1 28/1/1 29/1/1 30/1/1 
f 25/1/1 30/1/1 31/1/1 32/1/1 
f 33/1/2 34/1/2 35/1/2 36/1/2 
f 37/1/2 36/1/2 35/1/2 38/1/2 
f 39/1/2 38/1/2 35/1/2 40/1/2 
f 41/1/2 39/1/2 40/1/2 42/1/2 
f 43/1/2 41/1/2 42/1/2 44/1/2 
f 45/1/2 43/1/2 44/1/2 46/1/2 
f 45/1/2 46/1/2 47/1/2 48/1/2 
f 49/1/2 50/1/2 51/1/2 52/1/2 
f 53/1/2 52/1/2 51/1/2 54/1/2 
f 55/1/2 54/1/2 51/1/2 56/1/2 
f 57/1/2 56/1/2 51/1/2 58/1/2 
f 59/1/2 57/1/2 58/1/2 60/1/2 
f 61/1/2 59/1/2 60/1/2 62/1/2 
f 63/1/2 61/1/2 62/1/2 64/1/2 
f 65/1/2 63/1/2 64/1/2 66/1/2 
f 67/1/2 65/1/2 66/1/2 68/1/2 
f 67/1/2 68/1/2 69/1/2 70/1/2 
f 67/1/2 70/1/2 71/1/2 72/1/2 
f 73/1/2 74/1/2 75/1/2 76/1/2 
f 77/1/2 76/1/2 75/1/2 78/1/2 
f 79/1/2 77/1/2 78/1/2 80/1/2 
f 79/1/3 81/1/3 80/1/3 
f 81/1/4 77/1/4 76/1/4 
f 81/1/5 75/1/5 78/1/5 
f 81/1/6 73/1/6 74/1/6 
f 81/1/5 74/1/5 75/1/5 
f 76/1/6 73/1/6 81/1/6 
f 81/1/3 78/1/3 80/1/3 
f 81/1/4 79/1/4 77/1/4 
f 33/1/6 34/1/6 74/1/6 
f 78/1/7 42/1/7 44/1/7 
f 45/1/8 79/1/8 48/1/8 
f 76/1/9 39/1/9 38/1/9 
f 78/1/8 46/1/8 47/1/8 80/1/8 
f 43/1/9 41/1/9 77/1/9 79/1/9 
f 35/1/7 40/1/7 75/1/7 74/1/7 
f 36/1/6 73/1/6 76/1/6 37/1/6 
f 38/1/6 37/1/6 76/1/6 
f 33/1/6 74/1/6 73/1/6 36/1/6 
f 41/1/9 39/1/9 76/1/9 77/1/9 
f 79/1/9 45/1/9 43/1/9 
f 78/1/8 44/1/8 46/1/8 
f 79/1/8 80/1/8 47/1/8 48/1/8 
f 40/1/7 42/1/7 78/1/7 75/1/7 
f 74/1/7 34/1/7 35/1/7 
f 44/1/5 64/1/5 66/1/5 
f 67/1/3 45/1/3 72/1/3 
f 49/1/6 50/1/6 34/1/6 
f 38/1/4 57/1/4 56/1/4 
f 46/1/3 69/1/3 70/1/3 47/1/3 
f 63/1/4 61/1/4 41/1/4 43/1/4 
f 58/1/5 60/1/5 40/1/5 35/1/5 
f 53/1/6 36/1/6 37/1/6 54/1/6 
f 44/1/3 68/1/3 69/1/3 46/1/3 
f 47/1/3 70/1/3 71/1/3 48/1/3 
f 48/1/3 71/1/3 72/1/3 45/1/3 
f 44/1/3 66/1/3 68/1/3 
f 65/1/4 63/1/4 43/1/4 45/1/4 
f 61/1/4 59/1/4 39/1/4 41/1/4 
f 59/1/4 57/1/4 38/1/4 39/1/4 
f 45/1/4 67/1/4 65/1/4 
f 54/1/6 37/1/6 38/1/6 55/1/6 
f 52/1/6 33/1/6 36/1/6 53/1/6 
f 56/1/6 55/1/6 38/1/6 
f 49/1/6 34/1/6 33/1/6 52/1/6 
f 51/1/5 58/1/5 35/1/5 34/1/5 
f 60/1/5 62/1/5 42/1/5 40/1/5 
f 34/1/5 50/1/5 51/1/5 
f 62/1/5 64/1/5 44/1/5 42/1/5 
f 56/1/4 3/1/4 2/1/4 
f 9/1/6 10/1/6 50/1/6 
f 66/1/7 23/1/7 25/1/7 
f 24/1/8 67/1/8 26/1/8 
f 69/1/8 30/1/8 29/1/8 70/1/8 
f 18/1/4 16/1/4 61/1/4 63/1/4 
f 58/1/7 15/1/7 17/1/7 60/1/7 
f 6/1/6 53/1/6 54/1/6 5/1/6 
f 70/1/8 29/1/8 28/1/8 71/1/8 
f 68/1/8 31/1/8 30/1/8 69/1/8 
f 66/1/8 32/1/8 31/1/8 68/1/8 
f 71/1/8 28/1/8 27/1/8 72/1/8 
f 72/1/8 27/1/8 26/1/8 67/1/8 
f 66/1/8 25/1/8 32/1/8 
f 20/1/4 18/1/4 63/1/4 65/1/4 
f 16/1/4 14/1/4 59/1/4 61/1/4 
f 14/1/4 12/1/4 57/1/4 59/1/4 
f 22/1/4 20/1/4 65/1/4 67/1/4 
f 67/1/4 24/1/4 22/1/4 
f 12/1/4 3/1/4 56/1/4 57/1/4 
f 5/1/6 54/1/6 55/1/6 4/1/6 
f 7/1/6 52/1/6 53/1/6 6/1/6 
f 4/1/6 55/1/6 56/1/6 1/1/6 
f 8/1/6 49/1/6 52/1/6 7/1/6 
f 9/1/6 50/1/6 49/1/6 8/1/6 
f 2/1/6 1/1/6 56/1/6 
f 17/1/7 19/1/7 62/1/7 60/1/7 
f 51/1/7 13/1/7 15/1/7 58/1/7 
f 19/1/7 21/1/7 64/1/7 62/1/7 
f 11/1/7 13/1/7 51/1/7 50/1/7 
f 50/1/7 10/1/7 11/1/7 
f 64/1/7 21/1/7 23/1/7 66/1/7 
# 84 polygons - 32 triangles

